<?xml version="1.0" encoding="utf-8"?>
<!-- Generator: Adobe Illustrator 24.1.0, SVG Export Plug-In . SVG Version: 6.00 Build 0)  -->
<svg version="1.1" id="Ebene_1" xmlns="http://www.w3.org/2000/svg" xmlns:xlink="http://www.w3.org/1999/xlink" x="0px" y="0px"
	 viewBox="0 0 375.82 400.44" style="enable-background:new 0 0 375.82 400.44;" xml:space="preserve">
<style type="text/css">
	.st0{fill:#618D2F;}
</style>
<path class="st0" d="M47.75,386.37l-0.75-3.2c-1.01-0.37-2.21-0.56-3.59-0.56c-1.91,0-3.37,0.69-4.37,2.07
	c-1.01,1.38-1.52,3.32-1.52,5.81c0,2.5,0.55,4.37,1.64,5.58c1.09,1.22,2.56,1.82,4.39,1.82c0.41,0,0.85-0.05,1.33-0.14
	c0.47-0.09,0.94-0.23,1.39-0.41c0.45-0.18,0.86-0.37,1.23-0.56c0.38-0.2,0.69-0.39,0.93-0.58l0.73-0.56l1.12,1.82
	c-0.41,0.41-0.88,0.8-1.41,1.15c-0.53,0.35-1.1,0.67-1.71,0.94c-0.6,0.27-1.24,0.48-1.89,0.63c-0.65,0.15-1.32,0.22-1.99,0.22
	c-2.86,0-5.07-0.83-6.63-2.48c-1.56-1.66-2.34-4.07-2.34-7.25c0-1.59,0.22-3.03,0.66-4.32s1.07-2.39,1.89-3.3
	c0.82-0.91,1.81-1.61,2.95-2.1c1.15-0.5,2.45-0.75,3.89-0.75c0.43,0,0.9,0.03,1.41,0.1c0.51,0.06,1.02,0.15,1.51,0.26
	c0.5,0.12,0.96,0.23,1.4,0.35c0.44,0.13,0.8,0.24,1.08,0.35l0.9,0.34l-0.14,4.74H47.75z"/>
<path class="st0" d="M59.95,390.55c0-1.57,0.21-2.99,0.63-4.26c0.42-1.27,1.03-2.36,1.84-3.27c0.8-0.91,1.76-1.6,2.87-2.08
	c1.11-0.47,2.35-0.72,3.71-0.72s2.59,0.23,3.68,0.69c1.08,0.46,2,1.12,2.76,1.98c0.76,0.86,1.33,1.9,1.73,3.11
	c0.39,1.21,0.59,2.58,0.59,4.09c0,1.52-0.22,2.9-0.67,4.17c-0.45,1.26-1.08,2.35-1.89,3.25c-0.82,0.91-1.79,1.62-2.93,2.13
	c-1.14,0.51-2.4,0.77-3.78,0.77c-2.75,0-4.86-0.85-6.32-2.55C60.68,396.17,59.95,393.73,59.95,390.55 M68.92,382.61
	c-3.83,0-5.75,2.57-5.75,7.71c0,5.14,1.82,7.71,5.47,7.71c1.87,0,3.32-0.65,4.34-1.96c1.03-1.31,1.54-3.27,1.54-5.89
	C74.53,385.14,72.65,382.61,68.92,382.61"/>
<polygon class="st0" points="101.72,400.14 92.47,384.69 92.47,397.89 95.13,398.45 95.13,400.14 87.56,400.14 87.56,398.45 
	89.95,397.89 89.95,382.76 87.56,382.19 87.56,380.65 93.45,380.51 102.7,396.19 102.7,382.76 100.32,382.19 100.32,380.65 
	107.61,380.51 107.61,382.19 105.22,382.76 105.22,400.14 "/>
<path class="st0" d="M130.18,386.37l-0.75-3.2c-1.01-0.37-2.21-0.56-3.59-0.56c-1.91,0-3.37,0.69-4.37,2.07
	c-1.01,1.38-1.52,3.32-1.52,5.81c0,2.5,0.55,4.37,1.64,5.58c1.09,1.22,2.56,1.82,4.39,1.82c0.41,0,0.85-0.05,1.33-0.14
	c0.47-0.09,0.94-0.23,1.39-0.41s0.86-0.37,1.23-0.56c0.38-0.2,0.69-0.39,0.93-0.58l0.73-0.56l1.12,1.82
	c-0.41,0.41-0.88,0.8-1.41,1.15c-0.53,0.35-1.1,0.67-1.71,0.94c-0.6,0.27-1.24,0.48-1.89,0.63c-0.65,0.15-1.32,0.22-1.99,0.22
	c-2.86,0-5.07-0.83-6.63-2.48c-1.56-1.66-2.34-4.07-2.34-7.25c0-1.59,0.22-3.03,0.66-4.32s1.07-2.39,1.89-3.3
	c0.82-0.91,1.81-1.61,2.95-2.1c1.15-0.5,2.45-0.75,3.89-0.75c0.43,0,0.9,0.03,1.41,0.1c0.51,0.06,1.02,0.15,1.51,0.26
	c0.5,0.12,0.96,0.23,1.4,0.35c0.44,0.13,0.8,0.24,1.08,0.35l0.9,0.34l-0.14,4.74H130.18z"/>
<polygon class="st0" points="153.73,382.76 147.7,382.76 147.7,388.78 154.15,388.78 154.15,391.03 147.7,391.03 147.7,397.9 
	154.15,397.9 154.71,395.09 156.53,395.09 156.53,400.14 142.38,400.14 142.38,398.46 144.76,397.9 144.76,382.76 142.38,382.19 
	142.38,380.65 147.7,380.51 156.25,380.51 156.25,385.28 154.43,385.28 "/>
<path class="st0" d="M166.35,400.14v-1.68l2.38-0.56v-15.14l-2.38-0.57v-1.54l5.33-0.14h2.95c2.07,0,3.67,0.52,4.78,1.54
	c1.11,1.03,1.66,2.43,1.66,4.21c0,2.15-0.66,3.78-1.98,4.9c-1.32,1.13-3.18,1.69-5.59,1.69h-1.82v5.05l2.38,0.56v1.68H166.35z
	 M171.68,382.76v7.85h1.82c3.08,0,4.63-1.3,4.63-3.93c0-1.16-0.32-2.1-0.95-2.83c-0.64-0.73-1.54-1.09-2.69-1.09H171.68z"/>
<polygon class="st0" points="200.97,398.46 200.97,400.14 192.43,400.14 192.43,398.46 195.22,397.9 195.22,382.76 191.58,382.76 
	190.88,385.56 189.06,385.56 189.06,380.51 204.34,380.51 204.34,385.56 202.51,385.56 201.82,382.76 198.17,382.76 198.17,397.9 
	"/>
<path class="st0" d="M229.29,394.39l0.56,2.95c0.34,0.19,0.79,0.35,1.37,0.49c0.58,0.14,1.15,0.21,1.71,0.21
	c0.56,0,1.1-0.07,1.63-0.21s0.98-0.34,1.38-0.6c0.39-0.26,0.7-0.57,0.94-0.94c0.23-0.36,0.35-0.78,0.35-1.25
	c0-0.54-0.15-0.99-0.45-1.36c-0.3-0.36-0.69-0.68-1.16-0.95c-0.48-0.27-1.02-0.51-1.61-0.72c-0.6-0.21-1.21-0.42-1.82-0.64
	c-0.65-0.28-1.28-0.57-1.89-0.85c-0.6-0.29-1.15-0.65-1.62-1.07c-0.48-0.42-0.86-0.93-1.14-1.53c-0.28-0.6-0.42-1.34-0.42-2.22
	c0-0.93,0.18-1.74,0.55-2.44c0.36-0.69,0.85-1.26,1.46-1.71c0.61-0.44,1.32-0.78,2.13-0.99c0.81-0.22,1.66-0.32,2.56-0.32
	c0.41,0,0.85,0.03,1.32,0.08c0.47,0.06,0.92,0.13,1.37,0.21c0.45,0.09,0.87,0.18,1.26,0.28c0.39,0.1,0.73,0.19,1.01,0.26l0.9,0.28
	l-0.14,4.76h-1.82l-0.95-3c-0.53-0.17-1.04-0.29-1.56-0.36c-0.51-0.08-1.04-0.12-1.58-0.12c-0.54,0-1.04,0.07-1.47,0.21
	c-0.44,0.14-0.82,0.33-1.13,0.57c-0.31,0.25-0.54,0.51-0.71,0.81c-0.17,0.3-0.25,0.61-0.25,0.93c0.02,0.79,0.28,1.41,0.79,1.85
	c0.51,0.45,1.13,0.83,1.88,1.15c0.75,0.32,1.56,0.62,2.42,0.9c0.87,0.28,1.67,0.63,2.41,1.05c0.74,0.42,1.36,0.96,1.85,1.64
	c0.5,0.67,0.75,1.55,0.75,2.64c0,0.97-0.19,1.83-0.57,2.58c-0.37,0.75-0.88,1.38-1.54,1.89c-0.66,0.51-1.43,0.91-2.33,1.18
	c-0.9,0.27-1.86,0.4-2.89,0.4c-0.41,0-0.85-0.03-1.33-0.08c-0.48-0.06-0.94-0.13-1.4-0.21c-0.46-0.09-0.88-0.18-1.28-0.28
	c-0.39-0.1-0.72-0.2-0.98-0.3l-0.79-0.28v-4.91H229.29z"/>
<polygon class="st0" points="261.06,398.46 261.06,400.14 252.51,400.14 252.51,398.46 255.31,397.9 255.31,382.76 251.66,382.76 
	250.97,385.56 249.14,385.56 249.14,380.51 264.42,380.51 264.42,385.56 262.6,385.56 261.9,382.76 258.26,382.76 258.26,397.9 "/>
<path class="st0" d="M273.4,390.55c0-1.57,0.21-2.99,0.63-4.26c0.42-1.27,1.03-2.36,1.84-3.27c0.8-0.91,1.76-1.6,2.87-2.08
	c1.11-0.47,2.35-0.72,3.71-0.72c1.36,0,2.59,0.23,3.68,0.69c1.08,0.46,2,1.12,2.76,1.98c0.76,0.86,1.33,1.9,1.73,3.11
	c0.39,1.21,0.59,2.58,0.59,4.09c0,1.52-0.22,2.9-0.67,4.17c-0.45,1.26-1.08,2.35-1.89,3.25c-0.82,0.91-1.79,1.62-2.93,2.13
	c-1.14,0.51-2.4,0.77-3.78,0.77c-2.75,0-4.86-0.85-6.32-2.55C274.13,396.17,273.4,393.73,273.4,390.55 M282.37,382.61
	c-3.83,0-5.75,2.57-5.75,7.71c0,5.14,1.82,7.71,5.47,7.71c1.87,0,3.32-0.65,4.34-1.96c1.03-1.31,1.54-3.27,1.54-5.89
	C287.97,385.14,286.1,382.61,282.37,382.61"/>
<path class="st0" d="M301.01,400.14v-1.68l2.38-0.56v-15.14l-2.38-0.57v-1.54l5.33-0.14h3.08c1.98,0,3.53,0.45,4.64,1.35
	c1.11,0.9,1.66,2.13,1.66,3.7c0,2.75-1.21,4.57-3.64,5.47c0.45,0.39,1.01,1.23,1.68,2.52l2.22,4.46l1.99,0.45v1.68h-4.21l-2.38-5.18
	c-0.66-1.4-1.22-2.31-1.7-2.73c-0.48-0.42-1.17-0.63-2.09-0.63h-1.26v6.31l2.38,0.56v1.68H301.01z M306.34,382.76v6.73h2.1
	c1.37,0,2.43-0.31,3.2-0.93c0.76-0.62,1.15-1.43,1.15-2.44c0-1.03-0.33-1.84-0.98-2.45c-0.66-0.61-1.5-0.91-2.52-0.91H306.34z"/>
<polygon class="st0" points="338.16,382.76 332.14,382.76 332.14,388.78 338.58,388.78 338.58,391.03 332.14,391.03 332.14,397.9 
	338.58,397.9 339.14,395.09 340.97,395.09 340.97,400.14 326.81,400.14 326.81,398.46 329.19,397.9 329.19,382.76 326.81,382.19 
	326.81,380.65 332.14,380.51 340.68,380.51 340.68,385.28 338.86,385.28 "/>
</svg>
