<?xml version="1.0" encoding="utf-8"?>
<!-- Generator: Adobe Illustrator 24.1.0, SVG Export Plug-In . SVG Version: 6.00 Build 0)  -->
<svg version="1.1" id="Ebene_1" xmlns="http://www.w3.org/2000/svg" xmlns:xlink="http://www.w3.org/1999/xlink" x="0px" y="0px"
	 viewBox="0 0 375.82 400.44" style="enable-background:new 0 0 375.82 400.44;" xml:space="preserve">
<style type="text/css">
	.st0{fill:#618D2F;}
</style>
<path class="st0" d="M240.75,253.16c0,10.39-8.43,18.82-18.82,18.82c-10.39,0-18.82-8.42-18.82-18.82
	c0-10.39,8.43-18.82,18.82-18.82C232.33,234.34,240.75,242.77,240.75,253.16"/>
<path class="st0" d="M173.86,253.16c0,10.39-8.42,18.82-18.82,18.82c-10.39,0-18.82-8.42-18.82-18.82
	c0-10.39,8.43-18.82,18.82-18.82C165.43,234.34,173.86,242.77,173.86,253.16"/>
<path class="st0" d="M215.89,156.51c0,0,35.9,13.36,52.6,43.12l7.26-24.34C241.06,147.73,215.89,156.51,215.89,156.51"/>
<path class="st0" d="M293.81,57.04L91.82,57.09L74.69,12.21C71.88,4.86,64.83,0,56.96,0C43.71,0,34.54,13.24,39.2,25.64l27.02,72.04
	h0.01l40.38,107.65c3.05,8.68,11.21,14.48,20.37,14.48h54.35h22.93h10.92c-55.12-21.78-84.13-80.32-76.32-130.57
	c13.57,11.51,36.12,19.45,60.59,11.88c35.11-10.87,72.92-3.13,92.81,18.72l13.92-46.75C308.33,64.98,302.18,57.04,293.81,57.04"/>
<path class="st0" d="M0.48,357.87C0.16,357.55,0,357.15,0,356.65v-48c0-0.54,0.16-0.97,0.48-1.29c0.31-0.32,0.72-0.48,1.21-0.48
	h18.67c5.54,0,9.9,1.35,13.08,4.05c3.18,2.69,4.78,6.59,4.78,11.69c0,5.09-1.58,8.98-4.74,11.65c-3.16,2.67-7.53,4.01-13.12,4.01
	H7.35v18.37c0,0.49-0.17,0.89-0.51,1.22c-0.35,0.32-0.76,0.47-1.25,0.47h-3.9C1.2,358.35,0.79,358.19,0.48,357.87 M19.99,332.11
	c3.58,0,6.28-0.81,8.12-2.42c1.84-1.62,2.75-3.97,2.75-7.06c0-3.09-0.9-5.45-2.72-7.1c-1.81-1.64-4.53-2.46-8.16-2.46H7.28v19.04
	H19.99z"/>
<path class="st0" d="M49.47,357.61c-2.06-0.98-3.69-2.32-4.89-4.01c-1.2-1.69-1.8-3.57-1.8-5.62c0-3.24,1.34-5.9,4.01-7.98
	c2.67-2.08,6.28-3.44,10.84-4.08l10.95-1.54v-2.13c0-5-2.86-7.5-8.6-7.5c-2.16,0-3.92,0.45-5.29,1.36c-1.38,0.91-2.4,1.97-3.09,3.2
	c-0.15,0.44-0.33,0.75-0.55,0.95c-0.22,0.19-0.53,0.29-0.92,0.29h-3.16c-0.44,0-0.82-0.16-1.13-0.48c-0.32-0.31-0.48-0.7-0.48-1.13
	c0.05-1.18,0.6-2.51,1.65-4.01c1.05-1.5,2.68-2.8,4.89-3.9c2.21-1.1,4.93-1.66,8.16-1.66c5.49,0,9.43,1.29,11.84,3.86
	c2.39,2.58,3.6,5.77,3.6,9.59v23.82c0,0.49-0.16,0.89-0.48,1.22c-0.32,0.32-0.72,0.47-1.21,0.47h-3.38c-0.49,0-0.9-0.16-1.21-0.47
	c-0.32-0.32-0.48-0.72-0.48-1.22v-3.16c-1.08,1.57-2.64,2.89-4.7,3.97c-2.06,1.08-4.68,1.62-7.86,1.62
	C53.76,359.08,51.53,358.59,49.47,357.61 M65.53,350.44c2.04-2.08,3.05-5.08,3.05-9v-2.06l-8.53,1.25c-3.48,0.49-6.1,1.31-7.86,2.46
	c-1.76,1.15-2.64,2.61-2.64,4.37c0,1.96,0.81,3.46,2.42,4.52c1.62,1.06,3.53,1.58,5.74,1.58C60.89,353.57,63.5,352.53,65.53,350.44"
	/>
<path class="st0" d="M86.55,357.87c-0.32-0.32-0.48-0.72-0.48-1.21v-34.77c0-0.49,0.16-0.91,0.48-1.25
	c0.31-0.34,0.72-0.51,1.21-0.51h3.38c0.49,0,0.91,0.17,1.25,0.51c0.35,0.34,0.52,0.76,0.52,1.25v3.24c2.01-3.33,5.43-5,10.29-5h2.86
	c0.5,0,0.9,0.16,1.22,0.47c0.32,0.32,0.48,0.72,0.48,1.22v3.01c0,0.49-0.16,0.88-0.48,1.18c-0.32,0.29-0.72,0.44-1.22,0.44h-4.41
	c-2.64,0-4.73,0.78-6.25,2.32c-1.52,1.54-2.28,3.64-2.28,6.28v21.61c0,0.49-0.17,0.89-0.51,1.21c-0.34,0.32-0.76,0.47-1.25,0.47
	h-3.6C87.27,358.34,86.87,358.19,86.55,357.87"/>
<path class="st0" d="M117.31,345.41v-19.4h-5.73c-0.49,0-0.89-0.16-1.21-0.48c-0.32-0.32-0.48-0.72-0.48-1.22v-2.5
	c0-0.49,0.16-0.89,0.48-1.21c0.31-0.31,0.72-0.47,1.21-0.47h5.73v-12.28c0-0.49,0.16-0.89,0.48-1.21c0.32-0.32,0.72-0.48,1.22-0.48
	h3.45c0.49,0,0.89,0.16,1.22,0.48c0.31,0.32,0.47,0.72,0.47,1.21v12.28h9.11c0.49,0,0.89,0.16,1.21,0.47
	c0.32,0.32,0.48,0.72,0.48,1.21v2.5c0,0.5-0.16,0.9-0.48,1.22c-0.32,0.32-0.72,0.48-1.21,0.48h-9.11v18.89
	c0,2.45,0.42,4.3,1.25,5.55c0.83,1.25,2.2,1.88,4.12,1.88H134c0.49,0,0.9,0.16,1.21,0.48c0.32,0.32,0.48,0.72,0.48,1.21v2.64
	c0,0.49-0.16,0.89-0.48,1.22c-0.31,0.32-0.72,0.47-1.21,0.47h-5.07C121.18,358.35,117.31,354.04,117.31,345.41"/>
<path class="st0" d="M145.87,354.52c-2.96-3.04-4.54-7.08-4.74-12.13l-0.07-3.16l0.07-3.16c0.2-5,1.79-9.03,4.78-12.09
	c2.99-3.06,7.15-4.59,12.5-4.59c5.34,0,9.51,1.53,12.49,4.59c2.99,3.06,4.59,7.1,4.78,12.09c0.05,0.54,0.07,1.59,0.07,3.16
	s-0.03,2.62-0.07,3.16c-0.19,5.05-1.78,9.09-4.74,12.13c-2.97,3.04-7.14,4.56-12.53,4.56C153.01,359.08,148.83,357.56,145.87,354.52
	 M165.71,350.48c1.79-1.96,2.76-4.78,2.9-8.45c0.05-0.49,0.07-1.42,0.07-2.8s-0.02-2.3-0.07-2.8c-0.15-3.67-1.11-6.49-2.9-8.45
	c-1.79-1.96-4.22-2.94-7.31-2.94c-3.09,0-5.54,0.98-7.35,2.94c-1.82,1.96-2.77,4.78-2.87,8.45l-0.07,2.8l0.07,2.8
	c0.1,3.68,1.05,6.49,2.87,8.45c1.81,1.96,4.26,2.94,7.35,2.94C161.49,353.42,163.92,352.44,165.71,350.48"/>
<path class="st0" d="M188.39,354.56c-2.55-3.02-3.82-7.02-3.82-12.02v-20.73c0-0.49,0.16-0.89,0.48-1.21
	c0.32-0.31,0.72-0.47,1.21-0.47h3.68c0.49,0,0.89,0.16,1.22,0.47c0.31,0.32,0.47,0.72,0.47,1.21v20.36c0,7.3,3.18,10.95,9.56,10.95
	c3.08,0,5.53-0.97,7.35-2.9c1.82-1.93,2.72-4.62,2.72-8.05v-20.36c0-0.49,0.16-0.89,0.47-1.21c0.32-0.31,0.72-0.47,1.21-0.47h3.68
	c0.49,0,0.88,0.16,1.17,0.47c0.3,0.32,0.44,0.72,0.44,1.21v34.84c0,0.49-0.15,0.89-0.44,1.22c-0.29,0.32-0.69,0.47-1.17,0.47h-3.46
	c-0.49,0-0.9-0.16-1.21-0.47c-0.32-0.32-0.48-0.72-0.48-1.22v-3.24c-1.37,1.86-3.04,3.27-5,4.23c-1.96,0.96-4.38,1.44-7.28,1.44
	C194.54,359.08,190.94,357.57,188.39,354.56"/>
<path class="st0" d="M232.49,345.41v-19.4h-5.73c-0.49,0-0.89-0.16-1.21-0.48c-0.32-0.32-0.48-0.72-0.48-1.22v-2.5
	c0-0.49,0.16-0.89,0.48-1.21c0.31-0.31,0.72-0.47,1.21-0.47h5.73v-12.28c0-0.49,0.16-0.89,0.48-1.21c0.32-0.32,0.72-0.48,1.22-0.48
	h3.45c0.49,0,0.89,0.16,1.22,0.48c0.31,0.32,0.47,0.72,0.47,1.21v12.28h9.11c0.49,0,0.89,0.16,1.21,0.47
	c0.32,0.32,0.48,0.72,0.48,1.21v2.5c0,0.5-0.16,0.9-0.48,1.22c-0.32,0.32-0.72,0.48-1.21,0.48h-9.11v18.89
	c0,2.45,0.42,4.3,1.25,5.55c0.83,1.25,2.2,1.88,4.12,1.88h4.48c0.49,0,0.9,0.16,1.21,0.48c0.32,0.32,0.48,0.72,0.48,1.21v2.64
	c0,0.49-0.16,0.89-0.48,1.22c-0.31,0.32-0.72,0.47-1.21,0.47h-5.07C236.36,358.35,232.49,354.04,232.49,345.41"/>
<path class="st0" d="M277.36,357.87c-0.32-0.32-0.48-0.72-0.48-1.22v-48c0-0.54,0.16-0.97,0.48-1.29c0.31-0.31,0.72-0.47,1.21-0.47
	h20.14c5.25,0,9.19,1.25,11.84,3.75c2.64,2.5,3.97,5.78,3.97,9.85c0,2.75-0.63,5.03-1.88,6.84c-1.25,1.81-2.73,3.14-4.45,3.97
	c2.06,1.03,3.8,2.62,5.22,4.78c1.42,2.16,2.13,4.63,2.13,7.42c0,2.74-0.62,5.24-1.87,7.5c-1.25,2.26-3.1,4.04-5.55,5.37
	c-2.45,1.32-5.39,1.98-8.82,1.98h-20.73C278.08,358.35,277.68,358.19,277.36,357.87 M297.61,328.65c3.09,0,5.45-0.71,7.1-2.13
	c1.63-1.42,2.46-3.41,2.46-5.96c0-2.5-0.81-4.41-2.43-5.73c-1.62-1.32-3.99-1.98-7.13-1.98h-13.53v15.8H297.61z M298.35,352.39
	c3.09,0,5.5-0.83,7.24-2.5c1.74-1.67,2.61-3.8,2.61-6.4c0-2.7-0.87-4.86-2.61-6.5c-1.74-1.64-4.15-2.46-7.24-2.46h-14.26v17.86
	H298.35z"/>
<path class="st0" d="M324.92,312.52c-0.32-0.32-0.47-0.72-0.47-1.21v-3.97c0-0.49,0.16-0.91,0.47-1.25
	c0.32-0.34,0.72-0.51,1.22-0.51h4.63c0.49,0,0.91,0.17,1.25,0.51c0.34,0.34,0.51,0.76,0.51,1.25v3.97c0,0.49-0.17,0.89-0.51,1.21
	c-0.35,0.32-0.76,0.48-1.25,0.48h-4.63C325.64,313,325.24,312.84,324.92,312.52 M325.51,357.87c-0.32-0.32-0.48-0.72-0.48-1.21
	v-34.84c0-0.49,0.16-0.89,0.48-1.22c0.31-0.31,0.72-0.47,1.21-0.47h3.53c0.49,0,0.89,0.16,1.21,0.47c0.32,0.32,0.47,0.72,0.47,1.22
	v34.84c0,0.49-0.16,0.89-0.47,1.21c-0.32,0.32-0.72,0.47-1.21,0.47h-3.53C326.23,358.34,325.82,358.19,325.51,357.87"/>
<path class="st0" d="M345.94,354.52c-2.96-3.04-4.54-7.08-4.74-12.13l-0.07-3.16l0.07-3.16c0.2-5,1.79-9.03,4.78-12.09
	c2.99-3.06,7.15-4.59,12.5-4.59c5.34,0,9.51,1.53,12.49,4.59c2.99,3.06,4.59,7.1,4.78,12.09c0.05,0.54,0.07,1.59,0.07,3.16
	s-0.03,2.62-0.07,3.16c-0.19,5.05-1.78,9.09-4.74,12.13c-2.97,3.04-7.14,4.56-12.53,4.56C353.08,359.08,348.91,357.56,345.94,354.52
	 M365.79,350.48c1.79-1.96,2.76-4.78,2.9-8.45c0.05-0.49,0.07-1.42,0.07-2.8s-0.02-2.3-0.07-2.8c-0.15-3.67-1.11-6.49-2.9-8.45
	c-1.79-1.96-4.22-2.94-7.31-2.94c-3.09,0-5.54,0.98-7.35,2.94c-1.82,1.96-2.77,4.78-2.87,8.45l-0.07,2.8l0.07,2.8
	c0.1,3.68,1.05,6.49,2.87,8.45c1.81,1.96,4.26,2.94,7.35,2.94C361.56,353.42,364,352.44,365.79,350.48"/>
<path class="st0" d="M47.75,386.37l-0.75-3.2c-1.01-0.37-2.21-0.56-3.59-0.56c-1.91,0-3.37,0.69-4.37,2.07
	c-1.01,1.38-1.52,3.32-1.52,5.81c0,2.5,0.55,4.37,1.64,5.58c1.09,1.22,2.56,1.82,4.39,1.82c0.41,0,0.85-0.05,1.33-0.14
	c0.47-0.09,0.94-0.23,1.39-0.41c0.45-0.18,0.86-0.37,1.23-0.56c0.38-0.2,0.69-0.39,0.93-0.58l0.73-0.56l1.12,1.82
	c-0.41,0.41-0.88,0.8-1.41,1.15c-0.53,0.35-1.1,0.67-1.71,0.94c-0.6,0.27-1.24,0.48-1.89,0.63c-0.65,0.15-1.32,0.22-1.99,0.22
	c-2.86,0-5.07-0.83-6.63-2.48c-1.56-1.66-2.34-4.07-2.34-7.25c0-1.59,0.22-3.03,0.66-4.32s1.07-2.39,1.89-3.3
	c0.82-0.91,1.81-1.61,2.95-2.1c1.15-0.5,2.45-0.75,3.89-0.75c0.43,0,0.9,0.03,1.41,0.1c0.51,0.06,1.02,0.15,1.51,0.26
	c0.5,0.12,0.96,0.23,1.4,0.35c0.44,0.13,0.8,0.24,1.08,0.35l0.9,0.34l-0.14,4.74H47.75z"/>
<path class="st0" d="M59.95,390.55c0-1.57,0.21-2.99,0.63-4.26c0.42-1.27,1.03-2.36,1.84-3.27c0.8-0.91,1.76-1.6,2.87-2.08
	c1.11-0.47,2.35-0.72,3.71-0.72s2.59,0.23,3.68,0.69c1.08,0.46,2,1.12,2.76,1.98c0.76,0.86,1.33,1.9,1.73,3.11
	c0.39,1.21,0.59,2.58,0.59,4.09c0,1.52-0.22,2.9-0.67,4.17c-0.45,1.26-1.08,2.35-1.89,3.25c-0.82,0.91-1.79,1.62-2.93,2.13
	c-1.14,0.51-2.4,0.77-3.78,0.77c-2.75,0-4.86-0.85-6.32-2.55C60.68,396.17,59.95,393.73,59.95,390.55 M68.92,382.61
	c-3.83,0-5.75,2.57-5.75,7.71c0,5.14,1.82,7.71,5.47,7.71c1.87,0,3.32-0.65,4.34-1.96c1.03-1.31,1.54-3.27,1.54-5.89
	C74.53,385.14,72.65,382.61,68.92,382.61"/>
<polygon class="st0" points="101.72,400.14 92.47,384.69 92.47,397.89 95.13,398.45 95.13,400.14 87.56,400.14 87.56,398.45 
	89.95,397.89 89.95,382.76 87.56,382.19 87.56,380.65 93.45,380.51 102.7,396.19 102.7,382.76 100.32,382.19 100.32,380.65 
	107.61,380.51 107.61,382.19 105.22,382.76 105.22,400.14 "/>
<path class="st0" d="M130.18,386.37l-0.75-3.2c-1.01-0.37-2.21-0.56-3.59-0.56c-1.91,0-3.37,0.69-4.37,2.07
	c-1.01,1.38-1.52,3.32-1.52,5.81c0,2.5,0.55,4.37,1.64,5.58c1.09,1.22,2.56,1.82,4.39,1.82c0.41,0,0.85-0.05,1.33-0.14
	c0.47-0.09,0.94-0.23,1.39-0.41s0.86-0.37,1.23-0.56c0.38-0.2,0.69-0.39,0.93-0.58l0.73-0.56l1.12,1.82
	c-0.41,0.41-0.88,0.8-1.41,1.15c-0.53,0.35-1.1,0.67-1.71,0.94c-0.6,0.27-1.24,0.48-1.89,0.63c-0.65,0.15-1.32,0.22-1.99,0.22
	c-2.86,0-5.07-0.83-6.63-2.48c-1.56-1.66-2.34-4.07-2.34-7.25c0-1.59,0.22-3.03,0.66-4.32s1.07-2.39,1.89-3.3
	c0.82-0.91,1.81-1.61,2.95-2.1c1.15-0.5,2.45-0.75,3.89-0.75c0.43,0,0.9,0.03,1.41,0.1c0.51,0.06,1.02,0.15,1.51,0.26
	c0.5,0.12,0.96,0.23,1.4,0.35c0.44,0.13,0.8,0.24,1.08,0.35l0.9,0.34l-0.14,4.74H130.18z"/>
<polygon class="st0" points="153.73,382.76 147.7,382.76 147.7,388.78 154.15,388.78 154.15,391.03 147.7,391.03 147.7,397.9 
	154.15,397.9 154.71,395.09 156.53,395.09 156.53,400.14 142.38,400.14 142.38,398.46 144.76,397.9 144.76,382.76 142.38,382.19 
	142.38,380.65 147.7,380.51 156.25,380.51 156.25,385.28 154.43,385.28 "/>
<path class="st0" d="M166.35,400.14v-1.68l2.38-0.56v-15.14l-2.38-0.57v-1.54l5.33-0.14h2.95c2.07,0,3.67,0.52,4.78,1.54
	c1.11,1.03,1.66,2.43,1.66,4.21c0,2.15-0.66,3.78-1.98,4.9c-1.32,1.13-3.18,1.69-5.59,1.69h-1.82v5.05l2.38,0.56v1.68H166.35z
	 M171.68,382.76v7.85h1.82c3.08,0,4.63-1.3,4.63-3.93c0-1.16-0.32-2.1-0.95-2.83c-0.64-0.73-1.54-1.09-2.69-1.09H171.68z"/>
<polygon class="st0" points="200.97,398.46 200.97,400.14 192.43,400.14 192.43,398.46 195.22,397.9 195.22,382.76 191.58,382.76 
	190.88,385.56 189.06,385.56 189.06,380.51 204.34,380.51 204.34,385.56 202.51,385.56 201.82,382.76 198.17,382.76 198.17,397.9 
	"/>
<path class="st0" d="M229.29,394.39l0.56,2.95c0.34,0.19,0.79,0.35,1.37,0.49c0.58,0.14,1.15,0.21,1.71,0.21
	c0.56,0,1.1-0.07,1.63-0.21s0.98-0.34,1.38-0.6c0.39-0.26,0.7-0.57,0.94-0.94c0.23-0.36,0.35-0.78,0.35-1.25
	c0-0.54-0.15-0.99-0.45-1.36c-0.3-0.36-0.69-0.68-1.16-0.95c-0.48-0.27-1.02-0.51-1.61-0.72c-0.6-0.21-1.21-0.42-1.82-0.64
	c-0.65-0.28-1.28-0.57-1.89-0.85c-0.6-0.29-1.15-0.65-1.62-1.07c-0.48-0.42-0.86-0.93-1.14-1.53c-0.28-0.6-0.42-1.34-0.42-2.22
	c0-0.93,0.18-1.74,0.55-2.44c0.36-0.69,0.85-1.26,1.46-1.71c0.61-0.44,1.32-0.78,2.13-0.99c0.81-0.22,1.66-0.32,2.56-0.32
	c0.41,0,0.85,0.03,1.32,0.08c0.47,0.06,0.92,0.13,1.37,0.21c0.45,0.09,0.87,0.18,1.26,0.28c0.39,0.1,0.73,0.19,1.01,0.26l0.9,0.28
	l-0.14,4.76h-1.82l-0.95-3c-0.53-0.17-1.04-0.29-1.56-0.36c-0.51-0.08-1.04-0.12-1.58-0.12c-0.54,0-1.04,0.07-1.47,0.21
	c-0.44,0.14-0.82,0.33-1.13,0.57c-0.31,0.25-0.54,0.51-0.71,0.81c-0.17,0.3-0.25,0.61-0.25,0.93c0.02,0.79,0.28,1.41,0.79,1.85
	c0.51,0.45,1.13,0.83,1.88,1.15c0.75,0.32,1.56,0.62,2.42,0.9c0.87,0.28,1.67,0.63,2.41,1.05c0.74,0.42,1.36,0.96,1.85,1.64
	c0.5,0.67,0.75,1.55,0.75,2.64c0,0.97-0.19,1.83-0.57,2.58c-0.37,0.75-0.88,1.38-1.54,1.89c-0.66,0.51-1.43,0.91-2.33,1.18
	c-0.9,0.27-1.86,0.4-2.89,0.4c-0.41,0-0.85-0.03-1.33-0.08c-0.48-0.06-0.94-0.13-1.4-0.21c-0.46-0.09-0.88-0.18-1.28-0.28
	c-0.39-0.1-0.72-0.2-0.98-0.3l-0.79-0.28v-4.91H229.29z"/>
<polygon class="st0" points="261.06,398.46 261.06,400.14 252.51,400.14 252.51,398.46 255.31,397.9 255.31,382.76 251.66,382.76 
	250.97,385.56 249.14,385.56 249.14,380.51 264.42,380.51 264.42,385.56 262.6,385.56 261.9,382.76 258.26,382.76 258.26,397.9 "/>
<path class="st0" d="M273.4,390.55c0-1.57,0.21-2.99,0.63-4.26c0.42-1.27,1.03-2.36,1.84-3.27c0.8-0.91,1.76-1.6,2.87-2.08
	c1.11-0.47,2.35-0.72,3.71-0.72c1.36,0,2.59,0.23,3.68,0.69c1.08,0.46,2,1.12,2.76,1.98c0.76,0.86,1.33,1.9,1.73,3.11
	c0.39,1.21,0.59,2.58,0.59,4.09c0,1.52-0.22,2.9-0.67,4.17c-0.45,1.26-1.08,2.35-1.89,3.25c-0.82,0.91-1.79,1.62-2.93,2.13
	c-1.14,0.51-2.4,0.77-3.78,0.77c-2.75,0-4.86-0.85-6.32-2.55C274.13,396.17,273.4,393.73,273.4,390.55 M282.37,382.61
	c-3.83,0-5.75,2.57-5.75,7.71c0,5.14,1.82,7.71,5.47,7.71c1.87,0,3.32-0.65,4.34-1.96c1.03-1.31,1.54-3.27,1.54-5.89
	C287.97,385.14,286.1,382.61,282.37,382.61"/>
<path class="st0" d="M301.01,400.14v-1.68l2.38-0.56v-15.14l-2.38-0.57v-1.54l5.33-0.14h3.08c1.98,0,3.53,0.45,4.64,1.35
	c1.11,0.9,1.66,2.13,1.66,3.7c0,2.75-1.21,4.57-3.64,5.47c0.45,0.39,1.01,1.23,1.68,2.52l2.22,4.46l1.99,0.45v1.68h-4.21l-2.38-5.18
	c-0.66-1.4-1.22-2.31-1.7-2.73c-0.48-0.42-1.17-0.63-2.09-0.63h-1.26v6.31l2.38,0.56v1.68H301.01z M306.34,382.76v6.73h2.1
	c1.37,0,2.43-0.31,3.2-0.93c0.76-0.62,1.15-1.43,1.15-2.44c0-1.03-0.33-1.84-0.98-2.45c-0.66-0.61-1.5-0.91-2.52-0.91H306.34z"/>
<polygon class="st0" points="338.16,382.76 332.14,382.76 332.14,388.78 338.58,388.78 338.58,391.03 332.14,391.03 332.14,397.9 
	338.58,397.9 339.14,395.09 340.97,395.09 340.97,400.14 326.81,400.14 326.81,398.46 329.19,397.9 329.19,382.76 326.81,382.19 
	326.81,380.65 332.14,380.51 340.68,380.51 340.68,385.28 338.86,385.28 "/>
</svg>
