<?xml version="1.0" encoding="utf-8"?>
<!-- Generator: Adobe Illustrator 24.1.0, SVG Export Plug-In . SVG Version: 6.00 Build 0)  -->
<svg version="1.1" id="Ebene_1" xmlns="http://www.w3.org/2000/svg" xmlns:xlink="http://www.w3.org/1999/xlink" x="0px" y="0px"
	 viewBox="0 0 375.82 400.44" style="enable-background:new 0 0 375.82 400.44;" xml:space="preserve">
<style type="text/css">
	.st0{fill:#618D2F;}
</style>
<path class="st0" d="M0.48,357.87C0.16,357.55,0,357.15,0,356.65v-48c0-0.54,0.16-0.97,0.48-1.29c0.31-0.32,0.72-0.48,1.21-0.48
	h18.67c5.54,0,9.9,1.35,13.08,4.05c3.18,2.69,4.78,6.59,4.78,11.69c0,5.09-1.58,8.98-4.74,11.65c-3.16,2.67-7.53,4.01-13.12,4.01
	H7.35v18.37c0,0.49-0.17,0.89-0.51,1.22c-0.35,0.32-0.76,0.47-1.25,0.47h-3.9C1.2,358.35,0.79,358.19,0.48,357.87 M19.99,332.11
	c3.58,0,6.28-0.81,8.12-2.42c1.84-1.62,2.75-3.97,2.75-7.06c0-3.09-0.9-5.45-2.72-7.1c-1.81-1.64-4.53-2.46-8.16-2.46H7.28v19.04
	H19.99z"/>
<path class="st0" d="M49.47,357.61c-2.06-0.98-3.69-2.32-4.89-4.01c-1.2-1.69-1.8-3.57-1.8-5.62c0-3.24,1.34-5.9,4.01-7.98
	c2.67-2.08,6.28-3.44,10.84-4.08l10.95-1.54v-2.13c0-5-2.86-7.5-8.6-7.5c-2.16,0-3.92,0.45-5.29,1.36c-1.38,0.91-2.4,1.97-3.09,3.2
	c-0.15,0.44-0.33,0.75-0.55,0.95c-0.22,0.19-0.53,0.29-0.92,0.29h-3.16c-0.44,0-0.82-0.16-1.13-0.48c-0.32-0.31-0.48-0.7-0.48-1.13
	c0.05-1.18,0.6-2.51,1.65-4.01c1.05-1.5,2.68-2.8,4.89-3.9c2.21-1.1,4.93-1.66,8.16-1.66c5.49,0,9.43,1.29,11.84,3.86
	c2.39,2.58,3.6,5.77,3.6,9.59v23.82c0,0.49-0.16,0.89-0.48,1.22c-0.32,0.32-0.72,0.47-1.21,0.47h-3.38c-0.49,0-0.9-0.16-1.21-0.47
	c-0.32-0.32-0.48-0.72-0.48-1.22v-3.16c-1.08,1.57-2.64,2.89-4.7,3.97c-2.06,1.08-4.68,1.62-7.86,1.62
	C53.76,359.08,51.53,358.59,49.47,357.61 M65.53,350.44c2.04-2.08,3.05-5.08,3.05-9v-2.06l-8.53,1.25c-3.48,0.49-6.1,1.31-7.86,2.46
	c-1.76,1.15-2.64,2.61-2.64,4.37c0,1.96,0.81,3.46,2.42,4.52c1.62,1.06,3.53,1.58,5.74,1.58C60.89,353.57,63.5,352.53,65.53,350.44"
	/>
<path class="st0" d="M86.55,357.87c-0.32-0.32-0.48-0.72-0.48-1.21v-34.77c0-0.49,0.16-0.91,0.48-1.25
	c0.31-0.34,0.72-0.51,1.21-0.51h3.38c0.49,0,0.91,0.17,1.25,0.51c0.35,0.34,0.52,0.76,0.52,1.25v3.24c2.01-3.33,5.43-5,10.29-5h2.86
	c0.5,0,0.9,0.16,1.22,0.47c0.32,0.32,0.48,0.72,0.48,1.22v3.01c0,0.49-0.16,0.88-0.48,1.18c-0.32,0.29-0.72,0.44-1.22,0.44h-4.41
	c-2.64,0-4.73,0.78-6.25,2.32c-1.52,1.54-2.28,3.64-2.28,6.28v21.61c0,0.49-0.17,0.89-0.51,1.21c-0.34,0.32-0.76,0.47-1.25,0.47
	h-3.6C87.27,358.34,86.87,358.19,86.55,357.87"/>
<path class="st0" d="M117.31,345.41v-19.4h-5.73c-0.49,0-0.89-0.16-1.21-0.48c-0.32-0.32-0.48-0.72-0.48-1.22v-2.5
	c0-0.49,0.16-0.89,0.48-1.21c0.31-0.31,0.72-0.47,1.21-0.47h5.73v-12.28c0-0.49,0.16-0.89,0.48-1.21c0.32-0.32,0.72-0.48,1.22-0.48
	h3.45c0.49,0,0.89,0.16,1.22,0.48c0.31,0.32,0.47,0.72,0.47,1.21v12.28h9.11c0.49,0,0.89,0.16,1.21,0.47
	c0.32,0.32,0.48,0.72,0.48,1.21v2.5c0,0.5-0.16,0.9-0.48,1.22c-0.32,0.32-0.72,0.48-1.21,0.48h-9.11v18.89
	c0,2.45,0.42,4.3,1.25,5.55c0.83,1.25,2.2,1.88,4.12,1.88H134c0.49,0,0.9,0.16,1.21,0.48c0.32,0.32,0.48,0.72,0.48,1.21v2.64
	c0,0.49-0.16,0.89-0.48,1.22c-0.31,0.32-0.72,0.47-1.21,0.47h-5.07C121.18,358.35,117.31,354.04,117.31,345.41"/>
<path class="st0" d="M145.87,354.52c-2.96-3.04-4.54-7.08-4.74-12.13l-0.07-3.16l0.07-3.16c0.2-5,1.79-9.03,4.78-12.09
	c2.99-3.06,7.15-4.59,12.5-4.59c5.34,0,9.51,1.53,12.49,4.59c2.99,3.06,4.59,7.1,4.78,12.09c0.05,0.54,0.07,1.59,0.07,3.16
	s-0.03,2.62-0.07,3.16c-0.19,5.05-1.78,9.09-4.74,12.13c-2.97,3.04-7.14,4.56-12.53,4.56C153.01,359.08,148.83,357.56,145.87,354.52
	 M165.71,350.48c1.79-1.96,2.76-4.78,2.9-8.45c0.05-0.49,0.07-1.42,0.07-2.8s-0.02-2.3-0.07-2.8c-0.15-3.67-1.11-6.49-2.9-8.45
	c-1.79-1.96-4.22-2.94-7.31-2.94c-3.09,0-5.54,0.98-7.35,2.94c-1.82,1.96-2.77,4.78-2.87,8.45l-0.07,2.8l0.07,2.8
	c0.1,3.68,1.05,6.49,2.87,8.45c1.81,1.96,4.26,2.94,7.35,2.94C161.49,353.42,163.92,352.44,165.71,350.48"/>
<path class="st0" d="M188.39,354.56c-2.55-3.02-3.82-7.02-3.82-12.02v-20.73c0-0.49,0.16-0.89,0.48-1.21
	c0.32-0.31,0.72-0.47,1.21-0.47h3.68c0.49,0,0.89,0.16,1.22,0.47c0.31,0.32,0.47,0.72,0.47,1.21v20.36c0,7.3,3.18,10.95,9.56,10.95
	c3.08,0,5.53-0.97,7.35-2.9c1.82-1.93,2.72-4.62,2.72-8.05v-20.36c0-0.49,0.16-0.89,0.47-1.21c0.32-0.31,0.72-0.47,1.21-0.47h3.68
	c0.49,0,0.88,0.16,1.17,0.47c0.3,0.32,0.44,0.72,0.44,1.21v34.84c0,0.49-0.15,0.89-0.44,1.22c-0.29,0.32-0.69,0.47-1.17,0.47h-3.46
	c-0.49,0-0.9-0.16-1.21-0.47c-0.32-0.32-0.48-0.72-0.48-1.22v-3.24c-1.37,1.86-3.04,3.27-5,4.23c-1.96,0.96-4.38,1.44-7.28,1.44
	C194.54,359.08,190.94,357.57,188.39,354.56"/>
<path class="st0" d="M232.49,345.41v-19.4h-5.73c-0.49,0-0.89-0.16-1.21-0.48c-0.32-0.32-0.48-0.72-0.48-1.22v-2.5
	c0-0.49,0.16-0.89,0.48-1.21c0.31-0.31,0.72-0.47,1.21-0.47h5.73v-12.28c0-0.49,0.16-0.89,0.48-1.21c0.32-0.32,0.72-0.48,1.22-0.48
	h3.45c0.49,0,0.89,0.16,1.22,0.48c0.31,0.32,0.47,0.72,0.47,1.21v12.28h9.11c0.49,0,0.89,0.16,1.21,0.47
	c0.32,0.32,0.48,0.72,0.48,1.21v2.5c0,0.5-0.16,0.9-0.48,1.22c-0.32,0.32-0.72,0.48-1.21,0.48h-9.11v18.89
	c0,2.45,0.42,4.3,1.25,5.55c0.83,1.25,2.2,1.88,4.12,1.88h4.48c0.49,0,0.9,0.16,1.21,0.48c0.32,0.32,0.48,0.72,0.48,1.21v2.64
	c0,0.49-0.16,0.89-0.48,1.22c-0.31,0.32-0.72,0.47-1.21,0.47h-5.07C236.36,358.35,232.49,354.04,232.49,345.41"/>
<path class="st0" d="M277.36,357.87c-0.32-0.32-0.48-0.72-0.48-1.22v-48c0-0.54,0.16-0.97,0.48-1.29c0.31-0.31,0.72-0.47,1.21-0.47
	h20.14c5.25,0,9.19,1.25,11.84,3.75c2.64,2.5,3.97,5.78,3.97,9.85c0,2.75-0.63,5.03-1.88,6.84c-1.25,1.81-2.73,3.14-4.45,3.97
	c2.06,1.03,3.8,2.62,5.22,4.78c1.42,2.16,2.13,4.63,2.13,7.42c0,2.74-0.62,5.24-1.87,7.5c-1.25,2.26-3.1,4.04-5.55,5.37
	c-2.45,1.32-5.39,1.98-8.82,1.98h-20.73C278.08,358.35,277.68,358.19,277.36,357.87 M297.61,328.65c3.09,0,5.45-0.71,7.1-2.13
	c1.63-1.42,2.46-3.41,2.46-5.96c0-2.5-0.81-4.41-2.43-5.73c-1.62-1.32-3.99-1.98-7.13-1.98h-13.53v15.8H297.61z M298.35,352.39
	c3.09,0,5.5-0.83,7.24-2.5c1.74-1.67,2.61-3.8,2.61-6.4c0-2.7-0.87-4.86-2.61-6.5c-1.74-1.64-4.15-2.46-7.24-2.46h-14.26v17.86
	H298.35z"/>
<path class="st0" d="M324.92,312.52c-0.32-0.32-0.47-0.72-0.47-1.21v-3.97c0-0.49,0.16-0.91,0.47-1.25
	c0.32-0.34,0.72-0.51,1.22-0.51h4.63c0.49,0,0.91,0.17,1.25,0.51c0.34,0.34,0.51,0.76,0.51,1.25v3.97c0,0.49-0.17,0.89-0.51,1.21
	c-0.35,0.32-0.76,0.48-1.25,0.48h-4.63C325.64,313,325.24,312.84,324.92,312.52 M325.51,357.87c-0.32-0.32-0.48-0.72-0.48-1.21
	v-34.84c0-0.49,0.16-0.89,0.48-1.22c0.31-0.31,0.72-0.47,1.21-0.47h3.53c0.49,0,0.89,0.16,1.21,0.47c0.32,0.32,0.47,0.72,0.47,1.22
	v34.84c0,0.49-0.16,0.89-0.47,1.21c-0.32,0.32-0.72,0.47-1.21,0.47h-3.53C326.23,358.34,325.82,358.19,325.51,357.87"/>
<path class="st0" d="M345.94,354.52c-2.96-3.04-4.54-7.08-4.74-12.13l-0.07-3.16l0.07-3.16c0.2-5,1.79-9.03,4.78-12.09
	c2.99-3.06,7.15-4.59,12.5-4.59c5.34,0,9.51,1.53,12.49,4.59c2.99,3.06,4.59,7.1,4.78,12.09c0.05,0.54,0.07,1.59,0.07,3.16
	s-0.03,2.62-0.07,3.16c-0.19,5.05-1.78,9.09-4.74,12.13c-2.97,3.04-7.14,4.56-12.53,4.56C353.08,359.08,348.91,357.56,345.94,354.52
	 M365.79,350.48c1.79-1.96,2.76-4.78,2.9-8.45c0.05-0.49,0.07-1.42,0.07-2.8s-0.02-2.3-0.07-2.8c-0.15-3.67-1.11-6.49-2.9-8.45
	c-1.79-1.96-4.22-2.94-7.31-2.94c-3.09,0-5.54,0.98-7.35,2.94c-1.82,1.96-2.77,4.78-2.87,8.45l-0.07,2.8l0.07,2.8
	c0.1,3.68,1.05,6.49,2.87,8.45c1.81,1.96,4.26,2.94,7.35,2.94C361.56,353.42,364,352.44,365.79,350.48"/>
</svg>
