<svg id="Ebene_1" data-name="Ebene 1" xmlns="http://www.w3.org/2000/svg" viewBox="0 0 87.13 90.81"><defs><style>.cls-1{fill:#fff;}</style></defs><title>partoutbio-logo-with</title><circle class="cls-1" cx="49.82" cy="58.04" r="4.31"/><circle class="cls-1" cx="34.48" cy="58.04" r="4.31"/><path class="cls-1" d="M.11,81.42A.39.39,0,0,1,0,81.14V70a.44.44,0,0,1,.11-.3.39.39,0,0,1,.28-.11H4.72a4.58,4.58,0,0,1,3,.94,3.86,3.86,0,0,1,0,5.41,4.55,4.55,0,0,1-3,.93h-3v4.26a.36.36,0,0,1-.12.28.4.4,0,0,1-.29.11H.39A.39.39,0,0,1,.11,81.42Zm4.53-6a2.81,2.81,0,0,0,1.88-.56,2.44,2.44,0,0,0,0-3.28A2.69,2.69,0,0,0,4.64,71H1.69v4.42Z"/><path class="cls-1" d="M11.47,81.36a2.93,2.93,0,0,1-1.14-.93,2.29,2.29,0,0,1,.52-3.15,5.22,5.22,0,0,1,2.51-1L15.9,76v-.5c0-1.16-.67-1.74-2-1.74a2.17,2.17,0,0,0-1.22.32,2.2,2.2,0,0,0-.72.74.39.39,0,0,1-.13.22.28.28,0,0,1-.21.07h-.73a.4.4,0,0,1-.27-.11.36.36,0,0,1-.11-.26,1.81,1.81,0,0,1,.39-.93A3,3,0,0,1,12,72.88a4.27,4.27,0,0,1,1.89-.38,3.66,3.66,0,0,1,2.75.89,3.17,3.17,0,0,1,.83,2.23v5.52a.38.38,0,0,1-.39.39h-.78a.42.42,0,0,1-.29-.11.39.39,0,0,1-.11-.28v-.73a3,3,0,0,1-1.09.92A3.88,3.88,0,0,1,13,81.7,3.52,3.52,0,0,1,11.47,81.36Zm3.72-1.66a2.87,2.87,0,0,0,.71-2.09v-.48l-2,.29A4.63,4.63,0,0,0,12.1,78a1.16,1.16,0,0,0-.61,1,1.18,1.18,0,0,0,.56,1,2.41,2.41,0,0,0,1.33.36A2.42,2.42,0,0,0,15.19,79.7Z"/><path class="cls-1" d="M20.07,81.42a.36.36,0,0,1-.12-.28V73.08a.4.4,0,0,1,.12-.29.35.35,0,0,1,.28-.12h.78a.41.41,0,0,1,.41.41v.75a2.55,2.55,0,0,1,2.38-1.16h.67a.38.38,0,0,1,.39.39v.7a.35.35,0,0,1-.11.27.39.39,0,0,1-.28.11h-1a1.92,1.92,0,0,0-1.45.53,2,2,0,0,0-.53,1.46v5a.36.36,0,0,1-.12.28.44.44,0,0,1-.29.11h-.83A.38.38,0,0,1,20.07,81.42Z"/><path class="cls-1" d="M27.2,78.53V74H25.87a.38.38,0,0,1-.39-.39v-.58a.36.36,0,0,1,.11-.28.38.38,0,0,1,.28-.11H27.2V69.82a.37.37,0,0,1,.11-.28.38.38,0,0,1,.28-.11h.8a.39.39,0,0,1,.28.11.41.41,0,0,1,.11.28v2.85h2.11a.42.42,0,0,1,.29.11.39.39,0,0,1,.11.28v.58a.38.38,0,0,1-.4.39H28.78v4.38a2.37,2.37,0,0,0,.29,1.29,1.06,1.06,0,0,0,1,.43h1a.38.38,0,0,1,.4.4v.61a.39.39,0,0,1-.11.28.42.42,0,0,1-.29.11H29.89C28.09,81.53,27.2,80.53,27.2,78.53Z"/><path class="cls-1" d="M33.82,80.64a4,4,0,0,1-1.1-2.81l0-.73,0-.73a4,4,0,0,1,1.11-2.81,3.84,3.84,0,0,1,2.89-1.06,3.86,3.86,0,0,1,2.9,1.06,4.14,4.14,0,0,1,1.11,2.81c0,.12,0,.37,0,.73s0,.61,0,.73a4.14,4.14,0,0,1-1.1,2.81,3.87,3.87,0,0,1-2.91,1.06A3.83,3.83,0,0,1,33.82,80.64Zm4.6-.93a3,3,0,0,0,.67-2c0-.12,0-.33,0-.65s0-.53,0-.65a3,3,0,0,0-.67-2,2.47,2.47,0,0,0-3.4,0,3,3,0,0,0-.67,2v1.3a3,3,0,0,0,.67,2,2.47,2.47,0,0,0,3.4,0Z"/><path class="cls-1" d="M43.67,80.65a4.16,4.16,0,0,1-.88-2.78V73.06a.38.38,0,0,1,.39-.39H44a.38.38,0,0,1,.28.11.36.36,0,0,1,.11.28v4.72c0,1.69.74,2.54,2.22,2.54a2.21,2.21,0,0,0,1.7-.67A2.63,2.63,0,0,0,49,77.78V73.06a.39.39,0,0,1,.11-.28.42.42,0,0,1,.29-.11h.85a.37.37,0,0,1,.27.11.39.39,0,0,1,.1.28v8.08a.39.39,0,0,1-.1.28.37.37,0,0,1-.27.11h-.8a.38.38,0,0,1-.28-.11.36.36,0,0,1-.12-.28v-.75a3.08,3.08,0,0,1-1.15,1,3.89,3.89,0,0,1-1.69.33A3.11,3.11,0,0,1,43.67,80.65Z"/><path class="cls-1" d="M53.9,78.53V74H52.57a.36.36,0,0,1-.28-.11.34.34,0,0,1-.11-.28v-.58a.36.36,0,0,1,.11-.28.39.39,0,0,1,.28-.11H53.9V69.82a.37.37,0,0,1,.11-.28.39.39,0,0,1,.28-.11h.8a.39.39,0,0,1,.28.11.37.37,0,0,1,.11.28v2.85H57.6a.41.41,0,0,1,.28.11.39.39,0,0,1,.11.28v.58a.38.38,0,0,1-.11.28.37.37,0,0,1-.28.11H55.48v4.38a2.37,2.37,0,0,0,.29,1.29,1.07,1.07,0,0,0,1,.43h1a.41.41,0,0,1,.28.11.42.42,0,0,1,.11.29v.61a.39.39,0,0,1-.11.28.41.41,0,0,1-.28.11H56.59C54.79,81.53,53.9,80.53,53.9,78.53Z"/><path class="cls-1" d="M64.3,81.42a.39.39,0,0,1-.11-.28V70a.44.44,0,0,1,.11-.3.39.39,0,0,1,.28-.11h4.67a3.84,3.84,0,0,1,2.74.87,3,3,0,0,1,.92,2.29,2.72,2.72,0,0,1-.43,1.58,2.64,2.64,0,0,1-1,.92,3.12,3.12,0,0,1,1.21,1.11,3,3,0,0,1,.49,1.72,3.53,3.53,0,0,1-.43,1.74,3.15,3.15,0,0,1-1.29,1.24,4.21,4.21,0,0,1-2,.46H64.58A.39.39,0,0,1,64.3,81.42ZM69,74.65a2.44,2.44,0,0,0,1.64-.5,1.73,1.73,0,0,0,.57-1.38,1.64,1.64,0,0,0-.56-1.33A2.61,2.61,0,0,0,69,71H65.86v3.67Zm.17,5.5a2.29,2.29,0,0,0,1.67-.58,1.93,1.93,0,0,0,.61-1.48,2,2,0,0,0-.61-1.51A2.33,2.33,0,0,0,69.17,76H65.86v4.14Z"/><path class="cls-1" d="M75.33,70.91a.38.38,0,0,1-.12-.28v-.92a.37.37,0,0,1,.12-.29.35.35,0,0,1,.28-.12h1.07a.4.4,0,0,1,.29.12.37.37,0,0,1,.12.29v.92a.38.38,0,0,1-.12.28.44.44,0,0,1-.29.11H75.61A.38.38,0,0,1,75.33,70.91Zm.13,10.51a.39.39,0,0,1-.11-.28V73.06a.39.39,0,0,1,.11-.28.41.41,0,0,1,.28-.11h.82a.39.39,0,0,1,.28.11.36.36,0,0,1,.11.28v8.08a.36.36,0,0,1-.11.28.39.39,0,0,1-.28.11h-.82A.41.41,0,0,1,75.46,81.42Z"/><path class="cls-1" d="M80.2,80.64a4.09,4.09,0,0,1-1.1-2.81l0-.73,0-.73a4.09,4.09,0,0,1,1.11-2.81,4.48,4.48,0,0,1,5.79,0,4.14,4.14,0,0,1,1.11,2.81c0,.12,0,.37,0,.73s0,.61,0,.73A4.09,4.09,0,0,1,86,80.64a4.51,4.51,0,0,1-5.81,0Zm4.6-.93a3,3,0,0,0,.67-2c0-.12,0-.33,0-.65s0-.53,0-.65a3,3,0,0,0-.67-2,2.46,2.46,0,0,0-3.4,0,2.91,2.91,0,0,0-.66,2l0,.65,0,.65a2.91,2.91,0,0,0,.66,2,2.46,2.46,0,0,0,3.4,0Z"/><path class="cls-1" d="M48.43,35.88S56.67,39,60.5,45.77l1.66-5.58C54.21,33.87,48.43,35.88,48.43,35.88Z"/><path class="cls-1" d="M66.3,13.08H20L16.06,2.8A4.35,4.35,0,0,0,7.92,5.88l6.2,16.52h0l9.26,24.68a5,5,0,0,0,4.67,3.32H48.28C35.64,45.4,29,32,30.78,20.46a14.81,14.81,0,0,0,13.89,2.73c8-2.49,16.72-.72,21.28,4.29l3.19-10.72A2.94,2.94,0,0,0,66.3,13.08Z"/><path class="cls-1" d="M13.87,86.07v1.36h-.15c-.16-.82-.57-1.24-1.24-1.24a.83.83,0,0,0-.78.42,4.13,4.13,0,0,0-.25,1.77,6.92,6.92,0,0,0,.11,1.51.94.94,0,0,0,.37.58,1,1,0,0,0,.57.17,1.13,1.13,0,0,0,.77-.31,2,2,0,0,0,.56-1H14l-.05,1.39H13.8a.94.94,0,0,0-.25-.37,1.72,1.72,0,0,1-1.11.45,1.76,1.76,0,0,1-1.32-.68,2.48,2.48,0,0,1-.6-1.69,2.62,2.62,0,0,1,.59-1.72,1.72,1.72,0,0,1,1.36-.7,1.51,1.51,0,0,1,1,.42,2.8,2.8,0,0,0,.2-.37Z"/><path class="cls-1" d="M17.5,90.81A1.9,1.9,0,0,1,16,90.07a2.43,2.43,0,0,1-.62-1.6A2.47,2.47,0,0,1,16,86.74,2,2,0,0,1,17.53,86a1.89,1.89,0,0,1,1.45.73,2.47,2.47,0,0,1,0,3.34A1.94,1.94,0,0,1,17.5,90.81Zm0-4.62a1.4,1.4,0,0,0-.68.17,1,1,0,0,0-.4.6,7.16,7.16,0,0,0-.11,1.49,9.15,9.15,0,0,0,.06,1.18,1.39,1.39,0,0,0,.31.72,1,1,0,0,0,.79.29,1.37,1.37,0,0,0,.66-.18.9.9,0,0,0,.43-.68,8.66,8.66,0,0,0,.1-1.57,5,5,0,0,0-.12-1.33,1,1,0,0,0-.4-.53A1.35,1.35,0,0,0,17.51,86.19Z"/><path class="cls-1" d="M25,86.3v4.51h-.14l-3-4.53h0v4.25h.77v.18H21v-.18h.68V86.3H21v-.18H22.7l2.14,3.22h0v-3H24.1v-.18h1.62v.18Z"/><path class="cls-1" d="M30.4,86.07v1.36h-.15c-.16-.82-.57-1.24-1.23-1.24a.86.86,0,0,0-.79.42A4.18,4.18,0,0,0,28,88.38a7.12,7.12,0,0,0,.1,1.51,1,1,0,0,0,.37.58,1.09,1.09,0,0,0,.58.17,1.15,1.15,0,0,0,.77-.31,2.12,2.12,0,0,0,.56-1h.16l-.06,1.39h-.14a.91.91,0,0,0-.24-.37,1.72,1.72,0,0,1-1.11.45,1.76,1.76,0,0,1-1.33-.68,2.48,2.48,0,0,1-.6-1.69,2.62,2.62,0,0,1,.59-1.72A1.73,1.73,0,0,1,29,86a1.49,1.49,0,0,1,1.05.42,2,2,0,0,0,.2-.37Z"/><path class="cls-1" d="M33.47,86.3v2h.41a1.31,1.31,0,0,0,.37,0,.54.54,0,0,0,.28-.23,1.34,1.34,0,0,0,.14-.59h.17v1.94h-.17a1.08,1.08,0,0,0-.22-.73.83.83,0,0,0-.57-.17h-.41v2.09h.93a1.46,1.46,0,0,0,1.1-.33,1.68,1.68,0,0,0,.37-1H36l0,1.54H31.93v-.18h.73V86.3h-.73v-.18h3.9l.08,1.23h-.18a1.39,1.39,0,0,0-.36-.81,1.44,1.44,0,0,0-.93-.24Z"/><path class="cls-1" d="M39,88.61v1.92h.74v.18H37.48v-.18h.73V86.3h-.73v-.18h2.36a1.77,1.77,0,0,1,1.21.36,1.17,1.17,0,0,1,0,1.77,2,2,0,0,1-1.35.36Zm0-2.31v2.13h.44a2.35,2.35,0,0,0,.58-.06.67.67,0,0,0,.39-.31,1.39,1.39,0,0,0,.17-.77,1.22,1.22,0,0,0-.15-.68.57.57,0,0,0-.34-.26,1.76,1.76,0,0,0-.49,0Z"/><path class="cls-1" d="M42.74,86.12h3.9l.12,1.56h-.17a2.42,2.42,0,0,0-.43-1.08.86.86,0,0,0-.69-.3H45.1v4.23h.82v.18H43.47v-.18h.82V86.3h-.38a.87.87,0,0,0-.69.3,2.42,2.42,0,0,0-.43,1.08h-.17Z"/><path class="cls-1" d="M53.22,86.07l0,1.19h-.16c-.23-.71-.63-1.07-1.21-1.07a1,1,0,0,0-.74.27.76.76,0,0,0-.27.55.57.57,0,0,0,.22.44,1.77,1.77,0,0,0,.81.29,4,4,0,0,1,.89.24,1.28,1.28,0,0,1,.52.49,1.41,1.41,0,0,1,.21.77,1.53,1.53,0,0,1-.44,1.12,1.48,1.48,0,0,1-1.09.45,1.78,1.78,0,0,1-1.06-.39l-.32.29h-.12V89.42h.15a1.89,1.89,0,0,0,.56.91,1.19,1.19,0,0,0,.8.31,1.29,1.29,0,0,0,.78-.28.88.88,0,0,0,.36-.72.86.86,0,0,0-.25-.61,1.49,1.49,0,0,0-.8-.34,3.64,3.64,0,0,1-.86-.22,1.1,1.1,0,0,1-.51-.43,1.22,1.22,0,0,1-.21-.69,1.32,1.32,0,0,1,.37-.92,1.26,1.26,0,0,1,1-.41,1.64,1.64,0,0,1,1,.33,1.24,1.24,0,0,0,.22-.28Z"/><path class="cls-1" d="M54.87,86.12h3.91l.12,1.56h-.18a2.55,2.55,0,0,0-.42-1.08.89.89,0,0,0-.7-.3h-.37v4.23h.82v.18H55.6v-.18h.82V86.3H56a.89.89,0,0,0-.69.3,2.42,2.42,0,0,0-.43,1.08h-.17Z"/><path class="cls-1" d="M62.46,90.81A1.9,1.9,0,0,1,61,90.07a2.43,2.43,0,0,1-.62-1.6A2.47,2.47,0,0,1,61,86.74,2,2,0,0,1,62.49,86a1.87,1.87,0,0,1,1.45.73,2.47,2.47,0,0,1,0,3.34A1.94,1.94,0,0,1,62.46,90.81Zm0-4.62a1.4,1.4,0,0,0-.68.17,1,1,0,0,0-.4.6,7.16,7.16,0,0,0-.11,1.49,9.15,9.15,0,0,0,.06,1.18,1.33,1.33,0,0,0,.32.72,1,1,0,0,0,.78.29,1.37,1.37,0,0,0,.66-.18.9.9,0,0,0,.43-.68,8.66,8.66,0,0,0,.1-1.57,5,5,0,0,0-.12-1.33,1,1,0,0,0-.4-.53A1.35,1.35,0,0,0,62.47,86.19Z"/><path class="cls-1" d="M66.82,90.53V86.3H66.1v-.18h2.51a3,3,0,0,1,.81.09,1.06,1.06,0,0,1,.54.35,1,1,0,0,1,.23.62.86.86,0,0,1-.33.7,2.6,2.6,0,0,1-1.14.41v0a2,2,0,0,1,.94.43A1.41,1.41,0,0,1,70,89.85a1,1,0,0,0,.1.56.35.35,0,0,0,.29.13,1.18,1.18,0,0,0,.29-.05v.17a1.71,1.71,0,0,1-.57.1.92.92,0,0,1-.8-.31,1.08,1.08,0,0,1-.23-.62l0-.58a1.1,1.1,0,0,0-.2-.6c-.12-.2-.42-.29-.87-.29h-.43v2.17h.72v.18H66.1v-.18Zm.81-4.23v1.89h.62a2.38,2.38,0,0,0,.6,0,.5.5,0,0,0,.33-.28,1.39,1.39,0,0,0,.13-.71,1,1,0,0,0-.13-.58.48.48,0,0,0-.3-.23,2.05,2.05,0,0,0-.47,0Z"/><path class="cls-1" d="M73.57,86.3v2H74a1.31,1.31,0,0,0,.37,0,.51.51,0,0,0,.28-.23,1.21,1.21,0,0,0,.14-.59h.17v1.94h-.17a1.08,1.08,0,0,0-.22-.73.83.83,0,0,0-.57-.17h-.41v2.09h.93a1.46,1.46,0,0,0,1.1-.33,1.68,1.68,0,0,0,.37-1h.17l0,1.54H72v-.18h.73V86.3H72v-.18h3.9L76,87.35h-.18a1.39,1.39,0,0,0-.36-.81,1.42,1.42,0,0,0-.93-.24Z"/></svg>