<?xml version="1.0" encoding="utf-8"?>
<!-- Generator: Adobe Illustrator 24.1.0, SVG Export Plug-In . SVG Version: 6.00 Build 0)  -->
<svg version="1.1" id="Ebene_1" xmlns="http://www.w3.org/2000/svg" xmlns:xlink="http://www.w3.org/1999/xlink" x="0px" y="0px"
	 viewBox="0 0 375.82 400.44" style="enable-background:new 0 0 375.82 400.44;" xml:space="preserve">
<style type="text/css">
	.st0{fill:#618D2F;}
</style>
<path class="st0" d="M240.75,253.16c0,10.39-8.43,18.82-18.82,18.82c-10.39,0-18.82-8.42-18.82-18.82
	c0-10.39,8.43-18.82,18.82-18.82C232.33,234.34,240.75,242.77,240.75,253.16"/>
<path class="st0" d="M173.86,253.16c0,10.39-8.42,18.82-18.82,18.82c-10.39,0-18.82-8.42-18.82-18.82
	c0-10.39,8.43-18.82,18.82-18.82C165.43,234.34,173.86,242.77,173.86,253.16"/>
<path class="st0" d="M215.89,156.51c0,0,35.9,13.36,52.6,43.12l7.26-24.34C241.06,147.73,215.89,156.51,215.89,156.51"/>
<path class="st0" d="M293.81,57.04L91.82,57.09L74.69,12.21C71.88,4.86,64.83,0,56.96,0C43.71,0,34.54,13.24,39.2,25.64l27.02,72.04
	h0.01l40.38,107.65c3.05,8.68,11.21,14.48,20.37,14.48h54.35h22.93h10.92c-55.12-21.78-84.13-80.32-76.32-130.57
	c13.57,11.51,36.12,19.45,60.59,11.88c35.11-10.87,72.92-3.13,92.81,18.72l13.92-46.75C308.33,64.98,302.18,57.04,293.81,57.04"/>
</svg>
