<?xml version="1.0" encoding="utf-8"?>
<!-- Generator: Adobe Illustrator 24.1.3, SVG Export Plug-In . SVG Version: 6.00 Build 0)  -->
<svg version="1.1" id="Filled" xmlns="http://www.w3.org/2000/svg" xmlns:xlink="http://www.w3.org/1999/xlink" x="0px" y="0px"
	 viewBox="0 0 512 512" style="enable-background:new 0 0 512 512;" xml:space="preserve">
<path d="M213.1,231.4c4.1,1.7,8.8-0.3,10.4-4.4c1.7-4.1-0.3-8.8-4.4-10.4c-0.1,0-0.1,0-0.2-0.1c-18.5-7.3-42.3-11.4-66.9-11.4
	s-48.4,4-66.9,11.4c-4.1,1.6-6.2,6.2-4.6,10.3c1.6,4.1,6.2,6.2,10.3,4.6c0.1,0,0.1,0,0.2-0.1c16.7-6.6,38.4-10.2,61.1-10.2
	S196.4,224.8,213.1,231.4z"/>
<path d="M416,16h-32c-23.4,0-43.6,25.4-58.6,73.6c-7.1,22.8-12.5,49.4-16.2,78.4H144v0.1c-32.3,0.9-62.5,6.9-85.7,17.1
	C31,197.3,16,214.1,16,232.6c0,15.9,11.3,30.8,32,42.3V422c-12.2,9.7-20.5,23.4-23.4,38.7c-1.7,8.7,0.5,17.8,6.2,24.7
	C36.2,492.1,44.4,496,53,496H347c6.5,0,12.8-2.2,17.9-6.2c5.6,4,12.3,6.1,19.2,6.2h32c23.4,0,43.6-25.4,58.6-73.6
	C488.4,377.9,496,318.8,496,256s-7.6-121.9-21.4-166.4C459.6,41.4,439.4,16,416,16z M53,480c-3.9,0-7.5-1.8-9.9-4.7
	c-2.6-3.2-3.7-7.4-2.9-11.4c3.1-16.2,14.1-29.7,29.2-36.2c-2.2,6.2-3.8,12.6-4.9,19.1c-2,11.5,0.5,23.4,6.8,33.3H53z M104,480h-4.6
	c-4.7,0-9.3-2.3-12.9-6.5c-5.3-6.2-7.5-15.2-6.1-24.2c4-24.5,16.7-44.9,33.9-56.1c-3,12.5-3.2,25.5-0.5,38l9.6,45.7
	c0.2,1,0.5,2.1,0.9,3.1L104,480z M122.9,371.5c-18.2,6-33.9,19.4-44.6,37.3c-4.9,0.7-9.7,2.1-14.4,3.9V270.1c0-3-1.7-5.8-4.4-7.2
	C41.8,254,32,243.2,32,232.6c0-11.6,11.9-23.5,32.7-32.7C87.9,189.6,118.9,184,152,184s64.1,5.6,87.3,15.9
	c20.8,9.2,32.7,21.1,32.7,32.7c0,10.6-9.8,21.4-27.6,30.3c-2.7,1.4-4.4,4.1-4.4,7.2v66.4c-6.1-2.9-12.5-5-19.1-6.4
	c-13.8-2.8-28-2.8-41.8,0c-21.8,4.4-40.9,17.4-53,36.1C125,367.9,123.9,369.7,122.9,371.5z M270.5,427.9l-9.6,45.7
	c-0.8,3.7-4,6.3-7.8,6.4H146.9c-3.8,0-7-2.7-7.8-6.4l-9.6-45.7c-3.9-18.3-0.3-37.4,10-53c9.8-15.1,25.2-25.6,42.8-29.2
	c11.7-2.4,23.7-2.4,35.4,0c17.6,3.6,33,14.1,42.8,29.2C270.8,390.6,274.4,409.7,270.5,427.9z M313.5,473.5
	c-3.6,4.2-8.1,6.5-12.9,6.5h-25c0.4-1,0.7-2,0.9-3.1l9.6-45.7c2.7-12.6,2.5-25.6-0.5-38c17.2,11.2,29.9,31.7,33.9,56.1
	C321,458.3,318.8,467.3,313.5,473.5z M277.1,371.5c-1-1.8-2-3.5-3.2-5.3c-4.9-7.5-10.9-14.1-17.9-19.7v-71.6
	c20.7-11.5,32-26.4,32-42.3c0-18.5-15-35.3-42.3-47.4c-1-0.4-2-0.8-3-1.3h64.7c-2.3,23-3.5,47.2-3.5,72c0,56.6,6.1,109.8,17.4,152.3
	C310.7,390.6,295.2,377.4,277.1,371.5z M356.9,475.3c-2.4,3-6.1,4.7-9.9,4.7h-18.4c6.3-9.9,8.7-21.7,6.8-33.3
	c-1.1-6.5-2.7-12.9-4.9-19.1c15.2,6.4,26.1,20,29.2,36.2C360.5,467.9,359.5,472.1,356.9,475.3L356.9,475.3z M384,480
	c-3.5-0.1-6.9-1.2-9.8-3.2c1.9-5.1,2.3-10.7,1.2-16c-3.9-20.2-17.2-37.5-35.7-46.5c-4-13.9-7.3-27.9-9.9-42.1
	c11-3.1,35.5-7.3,67.6,3.4l0,0c4.1,1.5,8.7-0.6,10.3-4.7c1.5-4.1-0.6-8.7-4.7-10.3c-0.2-0.1-0.3-0.1-0.5-0.2l0,0l-0.1,0l-0.1,0
	c-34.4-11.4-61.2-7.8-75.1-4.1c-4.6-31.4-7-63.1-7.2-94.9c9.8-3.3,35.1-9.3,69.4,2.2l0,0c4.1,1.5,8.7-0.6,10.3-4.7
	c1.5-4.1-0.6-8.7-4.7-10.3c-0.2-0.1-0.3-0.1-0.5-0.2l0,0l-0.1,0l-0.1,0c-33.7-11.2-60-7.5-74.2-3.7c0.4-29.3,2.6-58.6,6.8-87.6
	c9.1-3,35.2-9.2,70.5,2.5l0,0c4.1,1.5,8.7-0.6,10.3-4.7c1.5-4.1-0.6-8.7-4.7-10.3c-0.2-0.1-0.3-0.1-0.5-0.2l0,0l-0.1,0l-0.1,0
	c-32.4-10.8-58-8.1-72.5-4.7c2.7-15.3,6.4-30.4,10.9-45.3C352.8,55.3,369,32,384,32s31.2,23.3,43.3,62.3
	C440.6,137.4,448,194.8,448,256s-7.4,118.6-20.7,161.7C415.2,456.7,399,480,384,480z M459.3,417.7C447.2,456.7,431,480,416,480h-1.9
	c10.8-12.3,20.4-31.7,28.4-57.6C456.4,377.9,464,318.8,464,256s-7.6-121.9-21.4-166.4c-8-25.9-17.6-45.2-28.4-57.6h1.9
	c15,0,31.2,23.3,43.3,62.3C472.6,137.4,480,194.8,480,256S472.6,374.6,459.3,417.7z"/>
</svg>
