<?xml version="1.0" encoding="utf-8"?>
<!-- Generator: Adobe Illustrator 24.1.3, SVG Export Plug-In . SVG Version: 6.00 Build 0)  -->
<svg version="1.1" id="Layer_1" xmlns="http://www.w3.org/2000/svg" xmlns:xlink="http://www.w3.org/1999/xlink" x="0px" y="0px"
	 viewBox="0 0 512 512" style="enable-background:new 0 0 512 512;" xml:space="preserve">
<g>
	<path d="M429,423c4.1,0,7.5-3.4,7.5-7.5V207.3c0-8.3-2-16.5-5.9-23.8c-3.9-7.3-9.5-13.6-16.4-18.3c-9.8-6.7-15.7-17.8-15.7-29.7
		v-1.4c1.8,0.4,3.7,0.6,5.8,0.8c2.9,0.2,5.8-0.8,7.9-2.8c2.1-2,3.3-4.8,3.3-7.7V82.5c9.2-2.8,16-11.4,16-21.5s-6.8-18.7-16-21.5v-2
		C415.5,16.8,398.7,0,378,0h-25.6c-4.1,0-7.5,3.4-7.5,7.5s3.4,7.5,7.5,7.5H378c12.4,0,22.5,10.1,22.5,22.5v1h-289v-1
		c0-12.4,10.1-22.5,22.5-22.5h186.2c4.1,0,7.5-3.4,7.5-7.5S324.4,0,320.2,0H134c-20.7,0-37.5,16.8-37.5,37.5v2
		c-9.2,2.8-16,11.4-16,21.5s6.8,18.7,16,21.5v41.9c0,2.9,1.2,5.7,3.3,7.7c2.1,2,5,3,7.9,2.8c2.1-0.1,3.9-0.4,5.7-0.8v1.4
		c0,5.8-1.4,11.6-4.2,16.8c-2.7,5.1-6.7,9.6-11.5,12.9c-14,9.5-22.3,25.2-22.3,42.1v258.4c0,25.5,20.7,46.2,46.2,46.2h268.5
		c25.5,0,46.2-20.7,46.2-46.2v-17.7c0-4.1-3.4-7.5-7.5-7.5s-7.5,3.4-7.5,7.5v17.7c0,17.2-14,31.2-31.2,31.2H121.8
		c-17.2,0-31.2-14-31.2-31.2V235.2h37.2c4.1,0,7.5-3.4,7.5-7.5s-3.4-7.5-7.5-7.5H90.5v-12.8c0-11.9,5.9-23,15.7-29.7
		c6.9-4.7,12.5-11,16.4-18.3c3.9-7.3,5.9-15.6,5.9-23.8v-8c2-1.4,3.8-2.8,5.5-4.1c5.9-4.7,10.6-8.4,20.7-8.4
		c10.1,0,14.8,3.7,20.7,8.4c6.6,5.2,14.7,11.6,30,11.6c15.3,0,23.4-6.4,30-11.6c5.9-4.7,10.6-8.4,20.7-8.4c10.1,0,14.7,3.7,20.7,8.4
		c6.6,5.2,14.7,11.6,30,11.6c15.3,0,23.4-6.4,30-11.6c5.9-4.7,10.6-8.4,20.7-8.4c10.1,0,14.7,3.7,20.7,8.4c1.7,1.4,3.5,2.8,5.5,4.1
		v8c0,16.9,8.3,32.6,22.3,42.1c4.8,3.3,8.8,7.8,11.6,12.9c2.7,5.2,4.2,11,4.2,16.8v12.8H160.4c-4.1,0-7.5,3.4-7.5,7.5
		s3.4,7.5,7.5,7.5h261.1v180.3C421.5,419.6,424.9,423,429,423L429,423z M409,68.5h-29.7l5.9-15H409c4.1,0,7.5,3.4,7.5,7.5
		S413.1,68.5,409,68.5z M180,53.5l-5.9,15h-31.2l5.9-15H180z M196.1,53.5h31.2l-5.9,15h-31.2L196.1,53.5z M243.4,53.5h31.2l-5.9,15
		h-31.2L243.4,53.5z M290.6,53.5h31.2l-5.9,15h-31.2L290.6,53.5z M337.9,53.5h31.2l-5.9,15H332L337.9,53.5z M103,53.5h29.7l-5.9,15
		H103c-4.1,0-7.5-3.4-7.5-7.5S98.9,53.5,103,53.5z M357.3,100c-15.3,0-23.4,6.4-30,11.6c-5.9,4.7-10.6,8.4-20.7,8.4
		c-10.1,0-14.7-3.7-20.7-8.4c-6.6-5.2-14.7-11.6-30-11.6c-15.3,0-23.4,6.4-30,11.6c-5.9,4.7-10.6,8.4-20.7,8.4
		c-10.1,0-14.7-3.7-20.7-8.4c-6.6-5.2-14.7-11.6-30-11.6c-15.3,0-23.4,6.4-30,11.6c-4.3,3.4-7.9,6.2-13.2,7.5V83.5h289v35.7
		c-5.3-1.3-8.9-4.2-13.2-7.5C380.8,106.4,372.6,100,357.3,100z"/>
</g>
</svg>
