<svg id="Layer_1" enable-background="new 0 0 512 512" height="512" viewBox="0 0 512 512" width="512" xmlns="http://www.w3.org/2000/svg"><g><path d="m392.62 166.756-10.682-9.158c5.173-2.962 9.775-5.198 19.033-5.198 3.106 0 5.892-1.916 7.004-4.816 1.111-2.901.319-6.187-1.992-8.263l-23.639-21.235c8.492-3.22 14.544-11.44 14.544-21.048 0-12.407-10.093-22.5-22.499-22.5h-6.608v-50.169c0-13.437-10.931-24.369-24.369-24.369h-176.263c-13.437 0-24.368 10.932-24.368 24.369v50.169h-5.171c-12.406 0-22.499 10.093-22.499 22.5 0 9.607 6.052 17.827 14.544 21.048l-23.639 21.235c-2.312 2.076-3.104 5.362-1.992 8.263s3.897 4.816 7.004 4.816c9.258 0 13.859 2.237 19.032 5.2l-10.678 9.155c-51.086 43.777-69.022 115.316-44.633 178.015l63.179 162.449c1.121 2.883 3.897 4.781 6.99 4.781h35.416c4.143 0 7.5-3.357 7.5-7.5s-3.357-7.5-7.5-7.5h-30.285l-11.397-29.306h234.697l-11.398 29.306h-146.703c-4.143 0-7.5 3.357-7.5 7.5s3.357 7.5 7.5 7.5h151.834c3.093 0 5.869-1.898 6.99-4.781l63.179-162.449c24.389-62.699 6.453-134.238-44.631-178.014zm-255.01-77.218h42.724c4.143 0 7.5-3.358 7.5-7.5s-3.357-7.5-7.5-7.5h-22.553v-50.169c0-5.166 4.202-9.369 9.368-9.369h176.263c5.166 0 9.369 4.203 9.369 9.369v50.169h-137.533c-4.143 0-7.5 3.358-7.5 7.5s3.357 7.5 7.5 7.5h159.142c4.135 0 7.499 3.364 7.499 7.5s-3.364 7.5-7.499 7.5h-236.78c-4.135 0-7.499-3.364-7.499-7.5s3.365-7.5 7.499-7.5zm12.874 30h211.031l22.737 20.425c-4.456 1.538-7.94 3.556-11.205 5.447-5.776 3.347-10.338 5.99-20.405 5.99-10.066 0-14.628-2.643-20.404-5.989-6.48-3.755-13.826-8.011-27.924-8.011-14.096 0-21.44 4.256-27.92 8.011-5.775 3.346-10.337 5.989-20.401 5.989-10.065 0-14.627-2.643-20.402-5.989-6.479-3.755-13.824-8.011-27.921-8.011-14.096 0-21.44 4.256-27.92 8.011-5.775 3.346-10.337 5.989-20.401 5.989s-14.625-2.643-20.399-5.989c-3.265-1.892-6.747-3.91-11.202-5.447zm-21.34 58.606 15.831-13.572c3.923 1.109 8.578 1.828 14.374 1.828 14.097 0 21.441-4.256 27.922-8.011 5.774-3.346 10.335-5.989 20.399-5.989s14.626 2.643 20.401 5.989c6.479 3.755 13.825 8.011 27.922 8.011s21.441-4.256 27.922-8.011c5.774-3.346 10.335-5.989 20.399-5.989 10.066 0 14.629 2.643 20.404 5.99 6.48 3.754 13.826 8.01 27.924 8.01 5.8 0 10.457-.72 14.381-1.83l15.834 13.574c24.922 21.357 41.13 50.01 47.326 80.777h-104.475c-14.853-22.77-40.553-37.851-69.708-37.851s-54.855 15.081-69.708 37.852h-104.477c6.197-30.767 22.406-59.421 47.329-80.778zm126.856 194.259c-37.587 0-68.166-30.58-68.166-68.167s30.579-68.166 68.166-68.166 68.166 30.579 68.166 68.166-30.579 68.167-68.166 68.167zm-176.393-98.481h98.946c-3.691 9.397-5.719 19.623-5.719 30.314s2.028 20.918 5.719 30.315h-91.586c-6.913-19.819-9.251-40.489-7.36-60.629zm53.211 178.772-8.752-22.504h170.145c4.143 0 7.5-3.358 7.5-7.5s-3.357-7.5-7.5-7.5h-175.979l-25.528-65.639h93.588c14.853 22.771 40.552 37.852 69.708 37.852s54.855-15.081 69.708-37.852h93.589l-25.528 65.639h-65.352c-4.143 0-7.5 3.358-7.5 7.5s3.357 7.5 7.5 7.5h59.519l-8.752 22.504zm292.215-118.143h-91.587c3.691-9.397 5.719-19.624 5.719-30.315s-2.028-20.917-5.719-30.314h98.946c1.892 20.14-.446 40.81-7.359 60.629z"/><path d="m289.752 283.73h-67.504c-4.143 0-7.5 3.358-7.5 7.5s3.357 7.5 7.5 7.5h67.504c4.143 0 7.5-3.358 7.5-7.5s-3.357-7.5-7.5-7.5z"/><path d="m274.752 313.743h-37.504c-4.143 0-7.5 3.358-7.5 7.5s3.357 7.5 7.5 7.5h37.504c4.143 0 7.5-3.358 7.5-7.5s-3.357-7.5-7.5-7.5z"/></g></svg>